<svg xmlns="http://www.w3.org/2000/svg" width="17" height="10" viewBox="0 0 17 10">
  <defs>
    <style>
      .cls-1 {
        fill: #01b7f1;
        fill-rule: evenodd;
      }
    </style>
  </defs>
  <path id="back_to_top.svg" class="cls-1" d="M1240.16,1714.14l-8.09,9.36a0.259,0.259,0,0,0-.03.33,0.42,0.42,0,0,0,.36.17h16.19a0.42,0.42,0,0,0,.36-0.17,0.3,0.3,0,0,0,.05-0.15,0.312,0.312,0,0,0-.07-0.18l-8.1-9.36a0.422,0.422,0,0,0-.33-0.14,0.444,0.444,0,0,0-.34.14h0Zm0,0" transform="translate(-1232 -1714)"/>
</svg>
