<?xml version="1.0" encoding="utf-8"?>
<!-- Generator: Adobe Illustrator 21.1.0, SVG Export Plug-In . SVG Version: 6.00 Build 0)  -->
<svg version="1.1" id="Layer_1" xmlns="http://www.w3.org/2000/svg" xmlns:xlink="http://www.w3.org/1999/xlink" x="0px" y="0px"
	 viewBox="0 0 49 48" style="enable-background:new 0 0 49 48;" xml:space="preserve">
<style type="text/css">
	.st0{fill:#01B7F1;}
</style>
<g>
	<g>
		<path class="st0" d="M15.5,30c-0.2,0-0.4,0-0.6,0c-0.6,0-1.1-0.1-1.7-0.2L0.7,42.2c-0.6,0.6-0.6,1.6,0,2.2l3.2,3.2
			c0.6,0.6,1.6,0.6,2.2,0l15.1-14.8l-2.8-3L15.5,30z M48.6,10.2c-0.6-0.6-1.5-0.6-2.1,0l-8.1,8c-0.8,0.8-2,0.8-2.8,0
			c-0.8-0.8-0.8-2,0-2.7l8.1-8c0.6-0.6,0.6-1.6,0-2.2c-0.6-0.6-1.6-0.6-2.2,0l-8.1,8c-0.8,0.8-2,0.8-2.8,0c-0.8-0.8-0.8-2,0-2.7
			l8.1-8c0.6-0.6,0.6-1.5,0-2.1c-0.6-0.6-1.5-0.6-2.1,0l-9.1,9c-2.2,2.2-2.9,5.2-2.2,8l6.1,6c2.8,0.7,5.9,0,8.1-2.2l9.2-9
			C49.2,11.7,49.2,10.8,48.6,10.2z M4.1,1.2C3.8,0.9,3.4,0.8,3,0.8c-0.1,0-0.2,0-0.3,0c-0.5,0.1-1,0.4-1.2,0.9
			c-2.7,5.5-1.6,12,2.8,16.3l7.8,7.7c0.8,0.8,1.8,1.2,2.9,1.2c0.1,0,0.2,0,0.3,0l4.5-0.4l19.7,20.9c0.3,0.3,0.7,0.5,1.2,0.5h0
			c0.4,0,0.9-0.2,1.2-0.5l3.4-3.3c0.3-0.3,0.5-0.7,0.5-1.2c0-0.4-0.2-0.8-0.5-1.2L4.1,1.2z"/>
	</g>
</g>
</svg>
