<svg xmlns="http://www.w3.org/2000/svg" width="49.031" height="48" viewBox="0 0 49.031 48">
  <defs>
    <style>
      .cls-1 {
        fill: #01b7f1;
        fill-rule: evenodd;
      }
    </style>
  </defs>
  <path id="food.svg" class="cls-1" d="M505.526,1016.98c-0.209.02-.416,0.03-0.624,0.03a7.692,7.692,0,0,1-1.666-.21l-12.55,12.35a1.539,1.539,0,0,0,0,2.2l3.247,3.19a1.586,1.586,0,0,0,2.229,0l15.084-14.84-2.8-2.97Zm0,0,33.028-19.788a1.524,1.524,0,0,0-2.131,0l-8.134,8.008a2,2,0,0,1-2.785,0,1.919,1.919,0,0,1,0-2.74L533.6,994.5a1.528,1.528,0,0,0,0-2.182,1.588,1.588,0,0,0-2.218,0l-8.089,7.966a2,2,0,0,1-2.785,0,1.92,1.92,0,0,1,0-2.742l8.132-8a1.468,1.468,0,0,0,0-2.1,1.525,1.525,0,0,0-2.135,0l-9.149,9a8.233,8.233,0,0,0-2.182,7.972l6.133,6.04a8.557,8.557,0,0,0,8.1-2.15l9.15-9.006a1.469,1.469,0,0,0,0-2.1h0Zm0,0-44.441-8.945a1.677,1.677,0,0,0-1.173-.477,1.6,1.6,0,0,0-.277.023,1.656,1.656,0,0,0-1.218.9,14.065,14.065,0,0,0,2.791,16.258l7.783,7.66a4.13,4.13,0,0,0,2.883,1.17c0.115,0,.23,0,0.346-0.01l4.518-.38,19.7,20.92a1.7,1.7,0,0,0,1.186.52h0.029a1.673,1.673,0,0,0,1.178-.48l3.374-3.32a1.617,1.617,0,0,0,0-2.31Zm0,0" transform="translate(-490 -987)"/>
</svg>
