<svg xmlns="http://www.w3.org/2000/svg" width="18.12" height="18" viewBox="0 0 18.12 18">
  <defs>
    <style>
      .cls-1 {
        fill: #01b7f1;
        fill-rule: evenodd;
      }
    </style>
  </defs>
  <path id="instagram.svg" class="cls-1" d="M1195,638h-14.49a1.807,1.807,0,0,0-1.81,1.8v14.4a1.807,1.807,0,0,0,1.81,1.8H1195a1.807,1.807,0,0,0,1.81-1.8V639.8A1.807,1.807,0,0,0,1195,638h0Zm-7.24,5.4a3.6,3.6,0,1,1-3.63,3.6,3.619,3.619,0,0,1,3.63-3.6h0Zm-6.8,10.8a0.425,0.425,0,0,1-.45-0.448V646.1h1.9a3.082,3.082,0,0,0-.09.9,5.435,5.435,0,0,0,10.87,0,3.082,3.082,0,0,0-.09-0.9h1.9v7.651a0.425,0.425,0,0,1-.45.448h-13.59ZM1195,642.052a0.425,0.425,0,0,1-.45.448h-1.82a0.43,0.43,0,0,1-.45-0.448v-1.8a0.43,0.43,0,0,1,.45-0.448h1.82a0.425,0.425,0,0,1,.45.448v1.8Zm0,0" transform="translate(-1178.69 -638)"/>
</svg>
