<svg xmlns="http://www.w3.org/2000/svg" width="13.66" height="14" viewBox="0 0 13.66 14">
  <defs>
    <style>
      .cls-1 {
        fill: #a7a8ac;
        fill-rule: evenodd;
      }
    </style>
  </defs>
  <path id="instagram_small.svg" class="cls-1" d="M1185.88,1712h-10.91a1.385,1.385,0,0,0-1.37,1.4v11.2a1.385,1.385,0,0,0,1.37,1.4h10.91a1.385,1.385,0,0,0,1.37-1.4v-11.2a1.385,1.385,0,0,0-1.37-1.4h0Zm-5.46,4.2a2.8,2.8,0,1,1-2.72,2.8,2.768,2.768,0,0,1,2.72-2.8h0Zm-5.11,8.4a0.323,0.323,0,0,1-.34-0.35v-5.95h1.43a2.381,2.381,0,0,0-.07.7,4.1,4.1,0,1,0,8.19,0,2.381,2.381,0,0,0-.07-0.7h1.43v5.95a0.323,0.323,0,0,1-.34.35h-10.23Zm10.57-9.45a0.323,0.323,0,0,1-.34.35h-1.36a0.323,0.323,0,0,1-.34-0.35v-1.4a0.323,0.323,0,0,1,.34-0.35h1.36a0.323,0.323,0,0,1,.34.35v1.4Zm0,0" transform="translate(-1173.59 -1712)"/>
</svg>
