<svg xmlns="http://www.w3.org/2000/svg" width="58" height="61" viewBox="0 0 58 61">
  <defs>
    <style>
      .cls-1 {
        fill: #989898;
        fill-rule: evenodd;
      }
    </style>
  </defs>
  <path id="logo.svg" class="cls-1" d="M49,69.064V87l4.05,0L77.417,67.686V62.251L91.048,51.323l-0.014,3.67,1.175,1L107,44.289V26.376h-3.992Zm29.6-6.235v4.791L102.9,86.762l4.1,0.011V83.91l-27.6-21.7ZM107,82.572l-0.008-6.141L84.078,58.459l-0.8.621v4.7Zm0-7.5v-6.15L88.756,54.71l-0.8.621,0.007,4.629ZM73.087,48.463c-2.1-3.416-2.811-4.792-7.524-6.306-5.43-1.744-5.555-2.519-8.944-7.753-1.264-1.953-2.977-3.5-7.619-4.64V26c7.045,0,9.555,3.316,11.236,6.1,1.467,2.426,2.273,4.644,7.1,6.152,5.342,1.67,6.239,2.34,9.288,7.5h0Zm-0.89.749c-2.421-4.425-3.887-5.012-9.042-6.645-4.192-1.328-5.041-3.782-6.717-6.3S54.287,32.5,49,30.859l0,4.673c3.2,1.7,3.313,2.45,5.13,5.094s2.475,4.335,6.773,5.7,5.621,1.865,7.915,5.5Zm-4.316,3.345c-2.08-3.171-2.64-3.557-7.025-5.013s-5.323-2.482-7.382-5.768S50.439,37.531,49,36.786l0,5.676c2.341,3.15,3.2,6.8,8.246,8.37,4.912,1.529,5.547,2.054,7.229,4.378Z" transform="translate(-49 -26)"/>
</svg>
