<svg xmlns="http://www.w3.org/2000/svg" width="18" height="13" viewBox="0 0 18 13">
  <defs>
    <style>
      .cls-1 {
        fill: #a7a8ac;
        fill-rule: evenodd;
      }
    </style>
  </defs>
  <path id="mail.svg" class="cls-1" d="M1090.86,1598h-13.72a2.057,2.057,0,0,0-2.14,1.95v9.1a2.057,2.057,0,0,0,2.14,1.95h13.72a2.057,2.057,0,0,0,2.14-1.95v-9.1a2.057,2.057,0,0,0-2.14-1.95h0Zm0,11.28h-13.72a0.3,0.3,0,0,1-.33-0.23v-7.9l6.21,4.99a0.755,0.755,0,0,0,.46.16h1.04a0.755,0.755,0,0,0,.46-0.16l6.21-4.99v7.9a0.3,0.3,0,0,1-.33.23h0Zm-6.86-4.69-6.04-4.87h12.08Zm0,0" transform="translate(-1075 -1598)"/>
</svg>
