<?xml version="1.0" encoding="utf-8"?>
<!-- Generator: Adobe Illustrator 21.1.0, SVG Export Plug-In . SVG Version: 6.00 Build 0)  -->
<svg version="1.1" id="Layer_1" xmlns="http://www.w3.org/2000/svg" xmlns:xlink="http://www.w3.org/1999/xlink" x="0px" y="0px"
	 viewBox="0 0 64 56" style="enable-background:new 0 0 64 56;" xml:space="preserve">
<style type="text/css">
	.st0{fill:#01B7F1;}
</style>
<g>
	<g>
		<path class="st0" d="M27,9.5c-5.7,2.3,3.3,13.4-24.5,24.7c-2.4,1-3,4.9-2,7.2s4.3,4.7,6.7,3.7c0.4-0.2,1.9-0.7,1.9-0.7
			c1.7,2.3,3.5,0.9,4.2,2.4c0.8,1.8,2.4,5.6,3,6.9c0.6,1.3,1.9,2.5,2.8,2.2c0.9-0.4,4.1-1.6,5.3-2c1.2-0.5,1.5-1.5,1.1-2.4
			s-2-1.2-2.5-2.3s-2-4.5-2.4-5.6c-0.6-1.5,0.7-2.7,2.5-2.9c12.7-1.3,15.1,6.5,19.4,4.8c3.3-1.4,2.7-11-1.4-20.6
			C36.9,15.4,30.3,8.2,27,9.5z M39.6,40.5c-0.7,0.3-5.7-3.6-8.9-11.1c-3.2-7.4-2.8-14.2-2-14.5c0.7-0.3,5.6,4.4,8.8,11.9
			C40.6,34.2,40.3,40.2,39.6,40.5z M50.3,0.3c-1.2-0.6-2.7-0.1-3.4,1.1l-4.4,8.8c-0.6,1.2-0.1,2.7,1.1,3.4c0.4,0.2,0.8,0.3,1.1,0.3
			c0.9,0,1.8-0.5,2.2-1.4l4.5-8.8C52.1,2.4,51.6,0.9,50.3,0.3z M62.4,37.3l-8.8-4.5c-1.2-0.6-2.7-0.1-3.4,1.1
			c-0.6,1.2-0.1,2.7,1.1,3.4l8.8,4.5c0.4,0.2,0.8,0.3,1.1,0.3c0.9,0,1.8-0.5,2.2-1.4C64.1,39.4,63.6,37.9,62.4,37.3z M52.1,24.5
			c0.3,0,0.5,0,0.8-0.1l9.4-3.1c1.3-0.4,2-1.8,1.6-3.1c-0.4-1.3-1.8-2-3.2-1.6l-9.4,3.1c-1.3,0.4-2,1.8-1.6,3.1
			C50.1,23.9,51.1,24.5,52.1,24.5z"/>
	</g>
</g>
</svg>
