<svg xmlns="http://www.w3.org/2000/svg" width="64" height="56.03" viewBox="0 0 64 56.03">
  <defs>
    <style>
      .cls-1 {
        fill: #01b7f1;
        fill-rule: evenodd;
      }
    </style>
  </defs>
  <path id="megaphone.svg" class="cls-1" d="M758.022,1004.98c-4.107-9.552-10.713-16.824-14.056-15.465-5.676,2.306,3.38,13.385-24.5,24.715-2.408.97-3.018,4.89-2.01,7.23s4.3,4.67,6.707,3.69c0.419-.16,1.948-0.66,1.948-0.66,1.719,2.31,3.52.94,4.157,2.41,0.768,1.76,2.436,5.59,3,6.89s1.853,2.51,2.788,2.15,4.1-1.56,5.314-2.02a1.751,1.751,0,0,0,1.132-2.39c-0.4-.92-2.038-1.19-2.507-2.26s-2-4.51-2.433-5.59c-0.6-1.48.671-2.68,2.514-2.87,12.689-1.32,15.061,6.51,19.382,4.76,3.342-1.36,2.66-11.04-1.444-20.59h0Zm-1.431,15.49c-0.742.3-5.735-3.64-8.926-11.06s-2.79-14.207-2.048-14.509,5.611,4.448,8.8,11.869,2.914,13.4,2.172,13.7h0Zm0,0,4-26.953a2.5,2.5,0,0,0,3.362-1.092l4.485-8.8a2.5,2.5,0,1,0-4.453-2.269l-4.486,8.8a2.5,2.5,0,0,0,1.092,3.361h0Zm0,0,18.786,23.763-8.8-4.49a2.5,2.5,0,0,0-2.269,4.46l8.8,4.48a2.548,2.548,0,0,0,1.132.27,2.5,2.5,0,0,0,1.138-4.72h0Zm0,0-12.642-14.5a2.5,2.5,0,0,0,2.376,1.73,2.6,2.6,0,0,0,.773-0.12l9.393-3.06a2.5,2.5,0,1,0-1.545-4.749l-9.393,3.052a2.5,2.5,0,0,0-1.6,3.147h0Zm0,0" transform="translate(-717 -980)"/>
</svg>
