<svg xmlns="http://www.w3.org/2000/svg" width="50" height="54" viewBox="0 0 50 54">
  <defs>
    <style>
      .cls-1 {
        fill: #01b7f1;
        fill-rule: evenodd;
      }
    </style>
  </defs>
  <path id="people.svg" class="cls-1" d="M1007.87,997.852c2.7,0,4.87-2.756,4.87-6.2s-2.17-4.65-4.87-4.65-4.87,1.292-4.87,4.65,2.17,6.2,4.87,6.2h0Zm0,0,2.35,1.206h-4.52a6.151,6.151,0,0,0-6.178,6.032l-0.087,8.78a6.154,6.154,0,0,0,2.605,5c0,0.17-.08.34-0.08,0.51l-0.09,18.95a2.581,2.581,0,0,0,2.52,2.58,2.651,2.651,0,0,0,2.61-2.49l0.09-12.84h1.39l-0.09,12.84a2.649,2.649,0,0,0,2.52,2.58,2.591,2.591,0,0,0,2.61-2.5l0.09-18.94a1.044,1.044,0,0,0-.09-0.52,5.968,5.968,0,0,0,2.61-4.91l0.09-8.79a5.958,5.958,0,0,0-6-6.282h0Zm0,0,15.39,0.861c2.35,0,4.26-2.412,4.26-5.426s-1.91-4.048-4.26-4.048-4.26,1.12-4.26,4.048c0,3.014,1.91,5.426,4.26,5.426h0Zm0,0,2,1.031h-3.91a5.252,5.252,0,0,0-5.31,5.26v7.57a5.146,5.146,0,0,0,2.26,4.31c0,0.17-.08.26-0.08,0.43l-0.09,16.45a2.216,2.216,0,0,0,4.43.09l0.09-11.2h1.22l-0.09,11.2a2.215,2.215,0,0,0,4.43.08l0.09-16.45v-0.43a5.115,5.115,0,0,0,2.26-4.3l0.09-7.67a5.454,5.454,0,0,0-5.39-5.34h0Zm0,0-37.392-1.031c2.347,0,4.26-2.412,4.26-5.426s-1.913-4.048-4.26-4.048-4.261,1.12-4.261,4.048c0,3.014,1.913,5.426,4.261,5.426h0Zm0,0,2.086,1.031h-3.913a5.249,5.249,0,0,0-5.3,5.26L983,1013.87a5.142,5.142,0,0,0,2.261,4.31c0,0.17-.087.26-0.087,0.43l-0.087,16.45a2.218,2.218,0,0,0,4.435.08l0.087-11.19h1.217l-0.087,11.19a2.218,2.218,0,0,0,4.435.09l0.087-16.45v-0.43a5.145,5.145,0,0,0,2.261-4.31l0.087-7.66a5.394,5.394,0,0,0-5.305-5.43h0Zm0,0" transform="translate(-983 -987)"/>
</svg>
