<?xml version="1.0" encoding="utf-8"?>
<!-- Generator: Adobe Illustrator 21.1.0, SVG Export Plug-In . SVG Version: 6.00 Build 0)  -->
<svg version="1.1" id="Layer_1" xmlns="http://www.w3.org/2000/svg" xmlns:xlink="http://www.w3.org/1999/xlink" x="0px" y="0px"
	 viewBox="0 0 50 54" style="enable-background:new 0 0 50 54;" xml:space="preserve">
<style type="text/css">
	.st0{fill:#01B7F1;}
</style>
<g>
	<g>
		<path class="st0" d="M24.9,10.9c2.7,0,4.9-2.8,4.9-6.2c0-3.4-2.2-4.7-4.9-4.7C22.2,0,20,1.3,20,4.7C20,8,22.2,10.9,24.9,10.9z
			 M27.2,12.1h-4.5c-3.4,0-6.1,2.7-6.2,6l-0.1,8.8c0,2.1,1,3.9,2.6,5c0,0.2-0.1,0.3-0.1,0.5l-0.1,18.9c0,1.4,1.1,2.6,2.5,2.6
			c1.4,0,2.5-1.1,2.6-2.5l0.1-12.8h1.4l-0.1,12.8c0,1.4,1.1,2.5,2.5,2.6c1.4,0,2.6-1.1,2.6-2.5l0.1-18.9c0-0.2,0-0.3-0.1-0.5
			c1.6-1.1,2.6-2.8,2.6-4.9l0.1-8.8C33.4,14.8,30.6,12.1,27.2,12.1z M42.6,12.9c2.3,0,4.3-2.4,4.3-5.4c0-3-1.9-4-4.3-4
			c-2.3,0-4.3,1.1-4.3,4C38.3,10.5,40.3,12.9,42.6,12.9z M44.6,14h-3.9c-3,0-5.3,2.3-5.3,5.3v7.6c0,1.8,0.9,3.4,2.3,4.3
			c0,0.2-0.1,0.3-0.1,0.4L37.5,48c0,1.2,1,2.2,2.2,2.2s2.3-0.9,2.3-2.2L42,36.9h1.2l-0.1,11.2c0,1.2,1,2.2,2.2,2.2
			c1.2,0,2.3-0.9,2.3-2.2l0.1-16.4v-0.4c1.4-0.9,2.3-2.5,2.3-4.3l0.1-7.7C49.9,16.4,47.6,14,44.6,14z M7.2,12.9
			c2.3,0,4.3-2.4,4.3-5.4c0-3-1.9-4-4.3-4C4.9,3.4,3,4.6,3,7.5C3,10.5,4.9,12.9,7.2,12.9z M9.3,14H5.4c-3,0-5.3,2.3-5.3,5.3L0,26.9
			c0,1.8,0.9,3.4,2.3,4.3c0,0.2-0.1,0.3-0.1,0.4L2.1,48.1c0,1.2,1,2.2,2.2,2.2c1.2,0,2.3-0.9,2.3-2.2l0.1-11.2h1.2L7.7,48.1
			c0,1.2,1,2.2,2.2,2.2c1.2,0,2.3-0.9,2.3-2.2l0.1-16.4v-0.4c1.4-0.9,2.3-2.5,2.3-4.3l0.1-7.7C14.6,16.4,12.2,14,9.3,14z"/>
	</g>
</g>
</svg>
