<svg xmlns="http://www.w3.org/2000/svg" width="84" height="7" viewBox="0 0 84 7">
  <defs>
    <style>
      .cls-1 {
        fill: #01b7f1;
        fill-rule: evenodd;
      }
    </style>
  </defs>
  <path id="podcrtava.svg" class="cls-1" d="M241.762,787h0.146a0.842,0.842,0,0,0,.468.09,5.845,5.845,0,0,1,1.331.3c2.353,0.639,4.5,1.926,6.907,2.374,0.457,0.1.928,0.076,1.386,0.165V794a9.181,9.181,0,0,1-2.826-.494c-1.584-.5-3.085-1.238-4.661-1.765a9.135,9.135,0,0,0-2.987-.565,10.631,10.631,0,0,0-3.923.857c-1.466.553-2.893,1.224-4.405,1.641a7.6,7.6,0,0,1-3.14.263c-2.937-.406-5.478-2.187-8.395-2.676a8.594,8.594,0,0,0-4.271.5c-2.121.7-4.123,1.822-6.351,2.163a9.31,9.31,0,0,1-4.754-.736,28.744,28.744,0,0,0-5.891-1.969,7.921,7.921,0,0,0-2.453.115c-2.539.537-4.8,1.946-7.338,2.494a7.125,7.125,0,0,1-2.741.08c-2.932-.489-5.485-2.275-8.437-2.686a7.861,7.861,0,0,0-2.5.119c-2.16.467-4.121,1.552-6.224,2.2A9.255,9.255,0,0,1,168,794v-4.078c0.461-.068.929-0.056,1.386-0.156,2.783-.522,5.23-2.167,8.031-2.62a7.542,7.542,0,0,1,3.078.174,48.664,48.664,0,0,1,4.806,1.761,10.74,10.74,0,0,0,3.66.808,14.436,14.436,0,0,0,5.387-1.448,13.339,13.339,0,0,1,5.517-1.374c2.235,0.144,4.254,1.218,6.326,1.98a9.857,9.857,0,0,0,4.538.807,19.423,19.423,0,0,0,5-1.575,14.325,14.325,0,0,1,4.4-1.213,7.942,7.942,0,0,1,2.208.225c1.861,0.454,3.582,1.335,5.387,1.958a8.852,8.852,0,0,0,4.292.566c2.857-.433,5.341-2.137,8.18-2.642,0.515-.1,1.042-0.091,1.56-0.172h0Z" transform="translate(-168 -787)"/>
</svg>
