<svg xmlns="http://www.w3.org/2000/svg" width="45" height="9" viewBox="0 0 45 9">
  <defs>
    <style>
      .cls-1 {
        fill: #01b7f1;
        fill-rule: evenodd;
      }
    </style>
  </defs>
  <path id="puscica_levo.svg" class="cls-1" d="M176.017,1238a6.948,6.948,0,0,0-1.439-3.69h25.751c0.195,0.08,2.335,2.01,2.471,2.96H213c-0.327-1.7-2.633-3.15-5-3.79,2.341-.57,4.784-2.14,5-3.78H202.8c-0.163.99-2.434,2.95-2.507,2.98H174.606a6.489,6.489,0,0,0,1.411-3.68,19.9,19.9,0,0,1-8.019,4.5A20.983,20.983,0,0,1,176.017,1238Z" transform="translate(-168 -1229)"/>
</svg>
