<svg xmlns="http://www.w3.org/2000/svg" width="45" height="9" viewBox="0 0 45 9">
  <defs>
    <style>
      .cls-1 {
        fill: #01b7f1;
        fill-rule: evenodd;
      }
    </style>
  </defs>
  <path id="puscica_desno.svg" class="cls-1" d="M1093.98,1238a6.958,6.958,0,0,1,1.44-3.69h-25.75c-0.19.08-2.33,2.01-2.47,2.96H1057c0.32-1.7,2.63-3.15,5-3.79-2.34-.57-4.78-2.14-5-3.78h10.2c0.16,0.99,2.43,2.95,2.51,2.98h25.68a6.523,6.523,0,0,1-1.41-3.68,19.915,19.915,0,0,0,8.02,4.5A21.017,21.017,0,0,0,1093.98,1238Z" transform="translate(-1057 -1229)"/>
</svg>
