<svg xmlns="http://www.w3.org/2000/svg" width="20.72" height="16.281" viewBox="0 0 20.72 16.281">
  <defs>
    <style>
      .cls-1 {
        fill: #01b7f1;
        fill-rule: evenodd;
      }
    </style>
  </defs>
  <path id="twitter.svg" class="cls-1" d="M1233.01,640.772a8.683,8.683,0,0,1-2.44.65,4.153,4.153,0,0,0,1.87-2.277,8.624,8.624,0,0,1-2.71,1,4.29,4.29,0,0,0-3.09-1.3,4.182,4.182,0,0,0-4.25,4.112,4.107,4.107,0,0,0,.11.936,12.188,12.188,0,0,1-8.76-4.3,3.964,3.964,0,0,0-.58,2.07,4.067,4.067,0,0,0,1.89,3.419,4.324,4.324,0,0,1-1.92-.513v0.05a4.163,4.163,0,0,0,3.41,4.038,4.594,4.594,0,0,1-1.12.14,4.425,4.425,0,0,1-.8-0.072,4.246,4.246,0,0,0,3.97,2.857,8.739,8.739,0,0,1-5.28,1.756,9.353,9.353,0,0,1-1.01-.055,12.284,12.284,0,0,0,6.51,1.847,11.809,11.809,0,0,0,12.09-11.7l-0.02-.532a8.362,8.362,0,0,0,2.13-2.131h0Zm0,0" transform="translate(-1212.28 -638.844)"/>
</svg>
