<svg xmlns="http://www.w3.org/2000/svg" width="15.59" height="12.65" viewBox="0 0 15.59 12.65">
  <defs>
    <style>
      .cls-1 {
        fill: #a7a8ac;
        fill-rule: evenodd;
      }
    </style>
  </defs>
  <path id="twitter_small.svg" class="cls-1" d="M1217.01,1714.16a6.261,6.261,0,0,1-1.84.5,3.191,3.191,0,0,0,1.41-1.77,6.541,6.541,0,0,1-2.04.78,3.2,3.2,0,0,0-5.54,2.19,2.841,2.841,0,0,0,.09.72,9.088,9.088,0,0,1-6.61-3.34,3.254,3.254,0,0,0-.43,1.61,3.205,3.205,0,0,0,1.42,2.66,3.076,3.076,0,0,1-1.44-.4v0.04a3.2,3.2,0,0,0,2.56,3.14,3.276,3.276,0,0,1-.84.11,3.053,3.053,0,0,1-.6-0.06,3.208,3.208,0,0,0,2.99,2.23,6.489,6.489,0,0,1-3.98,1.36,6.339,6.339,0,0,1-.76-0.04,9.106,9.106,0,0,0,14.02-7.66l-0.01-.42a6.435,6.435,0,0,0,1.6-1.65h0Zm0,0" transform="translate(-1201.41 -1712.66)"/>
</svg>
