<?xml version="1.0" encoding="utf-8"?>
<!-- Generator: Adobe Illustrator 21.1.0, SVG Export Plug-In . SVG Version: 6.00 Build 0)  -->
<svg version="1.1" id="Layer_1" xmlns="http://www.w3.org/2000/svg" xmlns:xlink="http://www.w3.org/1999/xlink" x="0px" y="0px"
	 viewBox="0 0 68 30" style="enable-background:new 0 0 68 30;" xml:space="preserve">
<style type="text/css">
	.st0{fill:#01B7F1;}
</style>
<g>
	<g>
		<path class="st0" d="M12.1,17.9c-3.2,0-5.9,2.7-5.9,6c0,3.3,2.6,6,5.9,6c3.2,0,5.9-2.7,5.9-6C17.9,20.6,15.3,17.9,12.1,17.9z
			 M12.1,26.6c-1.4,0-2.6-1.2-2.6-2.6c0-1.5,1.2-2.6,2.6-2.6c1.4,0,2.6,1.2,2.6,2.6C14.6,25.4,13.5,26.6,12.1,26.6z M52.4,17.9
			c-3.2,0-5.9,2.7-5.9,6c0,3.3,2.6,6,5.9,6c3.2,0,5.9-2.7,5.9-6C58.2,20.6,55.6,17.9,52.4,17.9z M52.4,26.6c-1.4,0-2.6-1.2-2.6-2.6
			c0-1.5,1.2-2.6,2.6-2.6c1.4,0,2.6,1.2,2.6,2.6C54.9,25.4,53.8,26.6,52.4,26.6z M67.8,11c-0.4-2.8-1.7-6.3-2.7-9.4
			C64.8,0.7,63.9,0,63,0H25c-1.3,0-2.5,0.4-3.4,1.2L11.4,9.5c0,0-6.8,1.2-9.6,4.4c-1.4,1.6-1.8,5.2-1.9,7.7c0,0.6,0.2,1.2,0.6,1.7
			C1,23.7,1.6,24,2.2,24h2.6v0c0-4.1,3.2-7.5,7.3-7.5c4,0,7.3,3.4,7.3,7.5v0h25.7v0c0-4.1,3.3-7.5,7.3-7.5c4,0,7.3,3.4,7.3,7.5v0
			h6.1c0.6,0,1.2-0.2,1.6-0.7c0.4-0.4,0.7-1,0.7-1.6C68,18.3,67.9,12.4,67.8,11z M5.1,15.3c0,0.2-0.1,0.3-0.2,0.4
			c-0.1,0.1-0.3,0.2-0.4,0.2H2.9c-0.2,0-0.4-0.1-0.5-0.3c-0.1-0.2-0.1-0.4,0-0.6c0.3-0.6,1-1,1.7-1h0.5c0.3,0,0.6,0.3,0.6,0.6V15.3z
			 M33.3,9.2c0,0.3-0.2,0.6-0.6,0.6H16.7c-0.2,0-0.4-0.2-0.5-0.4c-0.1-0.2,0-0.5,0.2-0.6l6.3-5.5c0.7-0.6,1.7-1,2.7-1h7.5
			c0.3,0,0.6,0.3,0.6,0.6V9.2z M49.4,9.2c0,0.3-0.2,0.6-0.6,0.6H37.2c-0.3,0-0.6-0.3-0.6-0.6V2.8c0-0.3,0.3-0.6,0.6-0.6h11.6
			c0.3,0,0.6,0.3,0.6,0.6V9.2z M64.1,9.5c-0.1,0.1-0.3,0.2-0.4,0.2H53.4c-0.3,0-0.6-0.3-0.6-0.6l0-6.4c0-0.1,0.1-0.3,0.2-0.4
			c0.1-0.1,0.2-0.2,0.4-0.2h8.8c0.3,0,0.5,0.2,0.6,0.5L64.2,9C64.2,9.2,64.2,9.4,64.1,9.5z"/>
	</g>
</g>
</svg>
