<svg xmlns="http://www.w3.org/2000/svg" width="68" height="30" viewBox="0 0 68 30">
  <defs>
    <style>
      .cls-1 {
        fill: #01b7f1;
        fill-rule: evenodd;
      }
    </style>
  </defs>
  <path id="van.svg" class="cls-1" d="M244.076,1015.94a6.032,6.032,0,1,0,5.86,6.03,5.942,5.942,0,0,0-5.86-6.03h0Zm0,8.67a2.641,2.641,0,1,1,2.569-2.64,2.613,2.613,0,0,1-2.569,2.64h0Zm0,0,40.278-8.67a6.032,6.032,0,1,0,5.861,6.03,5.943,5.943,0,0,0-5.861-6.03h0Zm0,8.67a2.641,2.641,0,1,1,2.57-2.64,2.612,2.612,0,0,1-2.57,2.64h0Zm0,0,12.741-25A2.23,2.23,0,0,0,294.979,998H256.965a5.458,5.458,0,0,0-3.446,1.245l-10.094,8.221s-6.846,1.24-9.55,4.42c-1.386,1.64-1.776,5.25-1.876,7.68a2.366,2.366,0,0,0,.624,1.69,2.245,2.245,0,0,0,1.62.72H236.8v-0.01a7.281,7.281,0,1,1,14.555,0v0.01h25.709v-0.01a7.312,7.312,0,1,1,14.619,0v0.01h6.08a2.222,2.222,0,0,0,1.592-.68,2.327,2.327,0,0,0,.651-1.64c-0.007-3.34-.056-9.27-0.234-10.63-0.353-2.78-1.747-6.29-2.675-9.417h0Zm-62.229,14.3a0.613,0.613,0,0,1-.531-0.31,0.67,0.67,0,0,1-.014-0.64,1.927,1.927,0,0,1,1.692-1.01h0.48a0.63,0.63,0,0,1,.624.63v0.7a0.628,0.628,0,0,1-.183.44,0.6,0.6,0,0,1-.433.19h-1.635Zm13.81-6.17a0.568,0.568,0,0,1-.523-0.38,0.6,0.6,0,0,1,.163-0.64l6.313-5.51a4.06,4.06,0,0,1,2.655-1.03h7.49a0.566,0.566,0,0,1,.56.57v6.41a0.569,0.569,0,0,1-.56.58h-16.1Zm32.69-.58a0.568,0.568,0,0,1-.558.58h-11.6a0.572,0.572,0,0,1-.558-0.58v-6.41a0.569,0.569,0,0,1,.558-0.57h11.6a0.566,0.566,0,0,1,.558.57v6.41Zm4.007,0.58a0.567,0.567,0,0,1-.553-0.58l0-6.41a0.58,0.58,0,0,1,.161-0.39,0.55,0.55,0,0,1,.4-0.17h8.848a0.606,0.606,0,0,1,.566.48l1.388,6.37a0.609,0.609,0,0,1-.107.49,0.569,0.569,0,0,1-.439.21H285.373Zm0,0" transform="translate(-232 -998)"/>
</svg>
